<svg width="30" height="30" viewBox="0 0 30 30" fill="none" xmlns="http://www.w3.org/2000/svg">
<g filter="url(#filter0_d_268_405)">
<path d="M20.3056 16.3056L24.75 20.75M4.75 9.63889C4.75 11.9964 5.68651 14.2573 7.3535 15.9243C9.02049 17.5913 11.2814 18.5278 13.6389 18.5278C15.9964 18.5278 18.2573 17.5913 19.9243 15.9243C21.5913 14.2573 22.5278 11.9964 22.5278 9.63889C22.5278 7.28141 21.5913 5.02049 19.9243 3.3535C18.2573 1.68651 15.9964 0.75 13.6389 0.75C11.2814 0.75 9.02049 1.68651 7.3535 3.3535C5.68651 5.02049 4.75 7.28141 4.75 9.63889Z" stroke="white" stroke-width="1.5" stroke-linecap="round" stroke-linejoin="round" shape-rendering="crispEdges"/>
</g>
<defs>
<filter id="filter0_d_268_405" x="0" y="0" width="29.5" height="29.5" filterUnits="userSpaceOnUse" color-interpolation-filters="sRGB">
<feFlood flood-opacity="0" result="BackgroundImageFix"/>
<feColorMatrix in="SourceAlpha" type="matrix" values="0 0 0 0 0 0 0 0 0 0 0 0 0 0 0 0 0 0 127 0" result="hardAlpha"/>
<feOffset dy="4"/>
<feGaussianBlur stdDeviation="2"/>
<feComposite in2="hardAlpha" operator="out"/>
<feColorMatrix type="matrix" values="0 0 0 0 0 0 0 0 0 0 0 0 0 0 0 0 0 0 0.25 0"/>
<feBlend mode="normal" in2="BackgroundImageFix" result="effect1_dropShadow_268_405"/>
<feBlend mode="normal" in="SourceGraphic" in2="effect1_dropShadow_268_405" result="shape"/>
</filter>
</defs>
</svg>
